<?xml version="1.0" encoding="UTF-8"?>
<svg viewBox="0 0 700 700" xmlns="http://www.w3.org/2000/svg" xmlns:xlink="http://www.w3.org/1999/xlink">
  <path d="m343.42 541.89c2.1523 0.23047 4.3438 0.4375 6.5781 0.61328 2.2344-0.17578 4.4258-0.38281 6.5781-0.61328-0.035156-0.28516-0.046875-0.56641-0.035156-0.86328l4.5781-112.13h-22.242l4.5781 112.13c0.011719 0.29687 0 0.57812-0.035156 0.86328zm-12.328-340.32c-23.188 3.3633-39.469 13.215-48.621 29.512-17.445 31.062 5.9023 51.621-7.1172 86.078 32.812 8.6562 25.977 64.754-8.4492 63.375 11.367 38.125-20.832 47.434-14.371 95.695 4.3828 32.738 28.805 56.234 79.789 64.219l-4.7695-116.88c-0.0625-1.5078 0.49609-2.9805 1.5391-4.0703 0.51562-0.53125 1.1211-0.95312 1.7852-1.2422v-96.234c-0.96875-0.33984-1.8555-0.91016-2.5859-1.6641-1.2539-1.3086-1.9219-3.0742-1.8477-4.8828zm37.812 0 4.6484 113.91c0.074218 1.8086-0.59375 3.5742-1.8477 4.8828-0.73047 0.75391-1.6172 1.3242-2.5859 1.6641v96.234c0.66406 0.28906 1.2695 0.71094 1.7852 1.2422 1.043 1.0898 1.6016 2.5625 1.5391 4.0703l-4.7695 116.88c50.984-7.9844 75.406-31.48 79.789-64.219 6.4609-48.262-25.738-57.57-14.371-95.695-34.426 1.3789-41.262-54.719-8.4492-63.375-13.02-34.457 10.328-55.016-7.1172-86.078-9.1523-16.297-25.434-26.148-48.621-29.512zm-30.004 216.23h-3.582v-95.391h3.582zm8.8789 0h-4.4414v-95.391h4.4414zm8.8789 0h-4.4414v-95.391h4.4414zm8.0195 0h-3.582v-95.391h3.582zm17.918-75.48c-1.5508-0.78906-2.1719-2-1.7773-3.1016 0.44141-1.2461 1.8789-2.1133 3.7812-2.0547 1.2852 0.039063 2.2578 0.35938 2.9336 1.0391 0.75 0.75 1.1367 1.8438 1.375 3.1562 0.25781 1.4219 0.30469 3.0742 0.23047 4.9023-0.40234 10.137-4.4375 25.184-3.1445 37.66 0.67578 6.5469 3.6367 14.141 8.3828 18.766 3.4414 3.3516 7.7773 5.2109 12.848 4.375 5.5781-0.91797 7.5938-6.043 5.7812-9.9062-1.1133-2.375-3.7695-4.4883-8.3594-4.4922-1.2227-0.003906-2.2188 0.99219-2.2227 2.2148 0 1.2266 0.99219 2.2227 2.2188 2.2227 2.3008 0.003906 3.7852 0.75 4.3477 1.9414 0.69531 1.4844-0.34375 3.2852-2.4883 3.6367-4.5352 0.75-8.1758-1.6953-10.852-5.2695-2.9531-3.9414-4.7578-9.2617-5.2422-13.945-0.87891-8.4844 0.82812-18.195 2.0469-26.637 0.86328-5.9727 1.4766-11.352 0.96094-15.344-0.40234-3.1406-1.5195-5.5234-3.4062-7.0078-1.3164-1.0391-3.0312-1.6797-5.2734-1.75-4.207-0.12891-7.125 2.2461-8.1016 5.0039-1.0312 2.9062-0.14453 6.4609 3.9453 8.5469 1.0938 0.55469 2.4297 0.12109 2.9844-0.96875 0.55859-1.0938 0.125-2.4297-0.96875-2.9883zm-63.18 3.957c4.0898-2.0859 4.9766-5.6406 3.9453-8.5469-0.97656-2.7578-3.8945-5.1328-8.1016-5.0039-2.2422 0.070313-3.957 0.71094-5.2734 1.75-1.8867 1.4844-3.0039 3.8672-3.4062 7.0078-0.51562 3.9922 0.097657 9.3711 0.96094 15.344 1.2188 8.4414 2.9258 18.152 2.0469 26.637-0.48438 4.6836-2.2891 10.004-5.2422 13.945-2.6758 3.5742-6.3164 6.0195-10.852 5.2695-2.1445-0.35156-3.1836-2.1523-2.4883-3.6367 0.5625-1.1914 2.0469-1.9375 4.3477-1.9414 1.2266 0 2.2188-0.99609 2.2188-2.2227-0.003907-1.2227-1-2.2188-2.2227-2.2148-4.5898 0.003906-7.2461 2.1172-8.3594 4.4922-1.8125 3.8633 0.20312 8.9883 5.7812 9.9062 5.0703 0.83594 9.4062-1.0234 12.848-4.375 4.7461-4.625 7.707-12.219 8.3828-18.766 1.293-12.477-2.7422-27.523-3.1445-37.66-0.074219-1.8281-0.027344-3.4805 0.23047-4.9023 0.23828-1.3125 0.625-2.4062 1.375-3.1562 0.67578-0.67969 1.6484-1 2.9336-1.0391 1.9023-0.058594 3.3398 0.80859 3.7812 2.0547 0.39453 1.1016-0.22656 2.3125-1.7773 3.1016-1.0938 0.55859-1.5273 1.8945-0.96875 2.9883 0.55469 1.0898 1.8906 1.5234 2.9844 0.96875zm24.676-299.92c0.089844 0.003907 0.17969 0.007813 0.27344 0.007813h11.266c0.09375 0 0.18359-0.003906 0.27344-0.007813l10.996 269.39h-33.805zm-9.0898 59.398 0.45312-11.098h-16.535v-4.4414c0-3.0625-2.4883-5.5508-5.5508-5.5508s-5.5469 2.4883-5.5469 5.5508v19.98c0 3.0625 2.4844 5.5508 5.5469 5.5508s5.5508-2.4883 5.5508-5.5508v-4.4414zm29.539-11.098 0.45312 11.098h16.082v4.4414c0 3.0625 2.4883 5.5508 5.5508 5.5508s5.5469-2.4883 5.5469-5.5508v-19.98c0-3.0625-2.4844-5.5508-5.5469-5.5508s-5.5508 2.4883-5.5508 5.5508v4.4414zm-27.836-30.57 0.45312-11.102h-13.797v-4.4375c0-3.0625-2.4883-5.5508-5.5508-5.5508s-5.5508 2.4883-5.5508 5.5508v19.977c0 3.0625 2.4883 5.5508 5.5508 5.5508s5.5508-2.4883 5.5508-5.5508v-4.4375zm26.133-11.102 0.45312 11.102h13.344v4.4375c0 3.0625 2.4883 5.5508 5.5508 5.5508s5.5508-2.4883 5.5508-5.5508v-19.977c0-3.0625-2.4883-5.5508-5.5508-5.5508s-5.5508 2.4883-5.5508 5.5508v4.4375zm-18.473-13.281-11.27-14.43v-7.7695h33.805v7.7695l-11.27 14.43z" fill-rule="evenodd"/>
</svg>
